<svg xmlns="http://www.w3.org/2000/svg" xmlns:xlink="http://www.w3.org/1999/xlink" width="544.827" height="128" viewBox="0 0 544.827 128">
  <defs>
    <linearGradient id="linear-gradient" y1="0.5" x2="1" y2="0.5" gradientUnits="objectBoundingBox">
      <stop offset="0" stop-color="#836df3"/>
      <stop offset="0.154" stop-color="#896df1"/>
      <stop offset="0.372" stop-color="#9b6dec"/>
      <stop offset="0.626" stop-color="#b96de3"/>
      <stop offset="0.906" stop-color="#e36dd8"/>
      <stop offset="1" stop-color="#f36dd4"/>
    </linearGradient>
  </defs>
  <g id="Group_256" data-name="Group 256" transform="translate(-1208.069 -753)">
    <g id="Group_104" data-name="Group 104" transform="translate(984.896 132)">
      <text id="SemisuPervisEd_dAta_pRogramming" data-name="SemisuPervisEd dAta pRogramming" transform="translate(356 743)" font-size="25" font-family="SFCompactText-Regular, SF Text"><tspan x="0" y="0">SemisuPervisEd dAta pRogramming</tspan></text>
      <text id="SPEAR" transform="translate(356 699)" fill="#e26dd8" font-size="82" font-family="SFCompactText-Medium, SF Text" font-weight="500"><tspan x="0" y="0">SPEAR</tspan></text>
    </g>
    <g id="Group_253" data-name="Group 253" transform="translate(721.83 644.161)">
      <path id="Path_898" data-name="Path 898" d="M495.919,148.343c-1.208-.7-2.189-.14-2.189,1.248a4.826,4.826,0,0,0,2.189,3.775c1.21.7,2.19.139,2.19-1.248A4.822,4.822,0,0,0,495.919,148.343Zm14.984,8.649c-1.208-.7-2.189-.139-2.189,1.249a4.826,4.826,0,0,0,2.189,3.775c1.209.7,2.189.139,2.189-1.248A4.825,4.825,0,0,0,510.9,156.992Zm22.475,18c1.208.7,2.189.14,2.189-1.248a4.826,4.826,0,0,0-2.189-3.775c-1.21-.7-2.189-.139-2.189,1.248A4.82,4.82,0,0,0,533.379,174.993Zm-7.493-9.349c-1.208-.7-2.189-.139-2.189,1.248a4.826,4.826,0,0,0,2.189,3.777c1.209.7,2.19.139,2.19-1.248A4.826,4.826,0,0,0,525.886,165.643Zm-22.474-12.975c-1.21-.7-2.189-.139-2.189,1.248a4.824,4.824,0,0,0,2.189,3.777c1.208.7,2.189.139,2.189-1.248A4.824,4.824,0,0,0,503.412,152.668Zm14.983,8.651c-1.208-.7-2.189-.139-2.189,1.248a4.824,4.824,0,0,0,2.189,3.775c1.21.7,2.19.139,2.19-1.248A4.822,4.822,0,0,0,518.395,161.318Zm-29.967-17.3c-1.208-.7-2.189-.139-2.189,1.248a4.828,4.828,0,0,0,2.189,3.777c1.21.7,2.19.139,2.19-1.248A4.824,4.824,0,0,0,488.428,144.017Zm14.984,17.672c-1.21-.7-2.189-.14-2.189,1.248a4.82,4.82,0,0,0,2.189,3.775c1.208.7,2.189.139,2.189-1.248A4.824,4.824,0,0,0,503.412,161.689Zm14.983,8.651c-1.208-.7-2.189-.14-2.189,1.248a4.824,4.824,0,0,0,2.189,3.775c1.21.7,2.19.139,2.19-1.248A4.822,4.822,0,0,0,518.395,170.34Zm-29.967-17.3c-1.208-.7-2.189-.139-2.189,1.248a4.824,4.824,0,0,0,2.189,3.775c1.21.7,2.19.14,2.19-1.248A4.822,4.822,0,0,0,488.428,153.038ZM510.9,166.014c-1.208-.7-2.189-.139-2.189,1.248a4.828,4.828,0,0,0,2.189,3.777c1.209.7,2.189.139,2.189-1.248A4.823,4.823,0,0,0,510.9,166.014Zm14.983,8.651c-1.208-.7-2.189-.139-2.189,1.248a4.828,4.828,0,0,0,2.189,3.777c1.209.7,2.19.139,2.19-1.248A4.824,4.824,0,0,0,525.886,174.664Zm-29.967-17.3c-1.208-.7-2.189-.139-2.189,1.248a4.828,4.828,0,0,0,2.189,3.777c1.21.7,2.19.139,2.19-1.248A4.826,4.826,0,0,0,495.919,157.363Zm37.459,21.627c-1.21-.7-2.189-.14-2.189,1.248a4.82,4.82,0,0,0,2.189,3.775c1.208.7,2.189.139,2.189-1.248A4.824,4.824,0,0,0,533.379,178.99ZM510.9,175.035c-1.208-.7-2.189-.139-2.189,1.248a4.824,4.824,0,0,0,2.189,3.775c1.209.7,2.189.14,2.189-1.248A4.82,4.82,0,0,0,510.9,175.035Zm14.983,8.651c-1.208-.7-2.189-.139-2.189,1.248a4.824,4.824,0,0,0,2.189,3.775c1.209.7,2.19.14,2.19-1.248A4.822,4.822,0,0,0,525.886,183.686Zm-37.458-21.628c-1.208-.7-2.189-.139-2.189,1.248a4.826,4.826,0,0,0,2.189,3.777c1.21.7,2.19.139,2.19-1.248A4.826,4.826,0,0,0,488.428,162.058Zm14.984,8.651c-1.21-.7-2.189-.139-2.189,1.248a4.823,4.823,0,0,0,2.189,3.777c1.208.7,2.189.139,2.189-1.248A4.828,4.828,0,0,0,503.412,170.709Zm29.967,17.3c-1.21-.7-2.189-.139-2.189,1.248a4.825,4.825,0,0,0,2.189,3.777c1.208.7,2.189.139,2.189-1.248A4.828,4.828,0,0,0,533.379,188.01Zm-14.984-8.651c-1.208-.7-2.189-.139-2.189,1.248a4.826,4.826,0,0,0,2.189,3.777c1.21.7,2.19.139,2.19-1.248A4.826,4.826,0,0,0,518.395,179.36Zm-22.475-12.975c-1.208-.7-2.189-.139-2.189,1.248a4.824,4.824,0,0,0,2.189,3.775c1.21.7,2.19.14,2.19-1.248A4.822,4.822,0,0,0,495.919,166.384Zm37.459,30.648c-1.21-.7-2.189-.139-2.189,1.248a4.825,4.825,0,0,0,2.189,3.777c1.208.7,2.189.139,2.189-1.248A4.824,4.824,0,0,0,533.379,197.032ZM510.9,184.055c-1.208-.7-2.189-.139-2.189,1.249a4.824,4.824,0,0,0,2.189,3.775c1.209.7,2.189.139,2.189-1.248A4.825,4.825,0,0,0,510.9,184.055ZM488.428,171.08c-1.208-.7-2.189-.139-2.189,1.248a4.828,4.828,0,0,0,2.189,3.777c1.21.7,2.19.139,2.19-1.248A4.824,4.824,0,0,0,488.428,171.08Zm29.967,17.3c-1.208-.7-2.189-.139-2.189,1.248a4.828,4.828,0,0,0,2.189,3.777c1.21.7,2.19.139,2.19-1.248A4.824,4.824,0,0,0,518.395,188.381Zm7.491,4.325c-1.208-.7-2.189-.139-2.189,1.249a4.826,4.826,0,0,0,2.189,3.775c1.209.7,2.19.139,2.19-1.248A4.826,4.826,0,0,0,525.886,192.706Zm-29.967-17.3c-1.208-.7-2.189-.14-2.189,1.248a4.824,4.824,0,0,0,2.189,3.775c1.21.7,2.19.139,2.19-1.248A4.822,4.822,0,0,0,495.919,175.406Zm7.493,4.325c-1.21-.7-2.189-.139-2.189,1.248a4.825,4.825,0,0,0,2.189,3.777c1.208.7,2.189.139,2.189-1.248A4.826,4.826,0,0,0,503.412,179.73Zm-7.493,4.7c-1.208-.7-2.189-.139-2.189,1.248a4.828,4.828,0,0,0,2.189,3.777c1.21.7,2.19.139,2.19-1.248A4.826,4.826,0,0,0,495.919,184.426Zm7.493,4.326c-1.21-.7-2.189-.139-2.189,1.248a4.82,4.82,0,0,0,2.189,3.775c1.208.7,2.189.14,2.189-1.248A4.824,4.824,0,0,0,503.412,188.752Zm22.474,12.975c-1.208-.7-2.189-.139-2.189,1.248a4.828,4.828,0,0,0,2.189,3.777c1.209.7,2.19.139,2.19-1.248A4.826,4.826,0,0,0,525.886,201.727ZM488.428,180.1c-1.208-.7-2.189-.139-2.189,1.248a4.824,4.824,0,0,0,2.189,3.775c1.21.7,2.19.139,2.19-1.248A4.822,4.822,0,0,0,488.428,180.1Zm44.951,25.952c-1.21-.7-2.189-.139-2.189,1.248a4.82,4.82,0,0,0,2.189,3.775c1.208.7,2.189.139,2.189-1.248A4.824,4.824,0,0,0,533.379,206.053ZM510.9,193.076c-1.208-.7-2.189-.139-2.189,1.248A4.828,4.828,0,0,0,510.9,198.1c1.209.7,2.189.139,2.189-1.248A4.825,4.825,0,0,0,510.9,193.076Zm7.491,4.326c-1.208-.7-2.189-.139-2.189,1.248a4.824,4.824,0,0,0,2.189,3.775c1.21.7,2.19.139,2.19-1.248A4.822,4.822,0,0,0,518.395,197.4Zm-29.967-8.281c-1.208-.7-2.189-.139-2.189,1.249a4.824,4.824,0,0,0,2.189,3.775c1.21.7,2.19.139,2.19-1.248A4.826,4.826,0,0,0,488.428,189.121Zm7.491,4.326c-1.208-.7-2.189-.139-2.189,1.248a4.828,4.828,0,0,0,2.189,3.777c1.21.7,2.19.139,2.19-1.249A4.823,4.823,0,0,0,495.919,193.447Zm22.475,12.975c-1.208-.7-2.189-.139-2.189,1.248a4.826,4.826,0,0,0,2.189,3.777c1.21.7,2.19.139,2.19-1.248A4.826,4.826,0,0,0,518.395,206.422ZM510.9,202.1c-1.208-.7-2.189-.139-2.189,1.248a4.824,4.824,0,0,0,2.189,3.775c1.209.7,2.189.14,2.189-1.248A4.82,4.82,0,0,0,510.9,202.1Zm14.983,8.651c-1.208-.7-2.189-.139-2.189,1.248a4.824,4.824,0,0,0,2.189,3.775c1.209.7,2.19.14,2.19-1.248A4.822,4.822,0,0,0,525.886,210.748Zm7.493,4.325c-1.21-.7-2.189-.139-2.189,1.248a4.825,4.825,0,0,0,2.189,3.777c1.208.7,2.189.139,2.189-1.248A4.828,4.828,0,0,0,533.379,215.073Zm-29.967-17.3c-1.21-.7-2.189-.139-2.189,1.248a4.822,4.822,0,0,0,2.189,3.777c1.208.7,2.189.139,2.189-1.248A4.828,4.828,0,0,0,503.412,197.772Zm-14.984.371c-1.208-.7-2.189-.139-2.189,1.248a4.828,4.828,0,0,0,2.189,3.777c1.21.7,2.19.139,2.19-1.248A4.824,4.824,0,0,0,488.428,198.142Zm44.951,25.952c-1.21-.7-2.189-.139-2.189,1.248a4.82,4.82,0,0,0,2.189,3.775c1.208.7,2.189.14,2.189-1.247A4.826,4.826,0,0,0,533.379,224.095Zm-29.967-17.3c-1.21-.7-2.189-.139-2.189,1.248a4.824,4.824,0,0,0,2.189,3.777c1.208.7,2.189.139,2.189-1.248A4.826,4.826,0,0,0,503.412,206.793Zm14.983,8.651c-1.208-.7-2.189-.139-2.189,1.248a4.828,4.828,0,0,0,2.189,3.777c1.21.7,2.19.139,2.19-1.248A4.824,4.824,0,0,0,518.395,215.444Zm-22.475-12.975c-1.208-.7-2.189-.14-2.189,1.248a4.824,4.824,0,0,0,2.189,3.775c1.21.7,2.19.139,2.19-1.248A4.821,4.821,0,0,0,495.919,202.468Zm14.984,8.651c-1.208-.7-2.189-.14-2.189,1.248a4.824,4.824,0,0,0,2.189,3.775c1.209.7,2.189.139,2.189-1.248A4.82,4.82,0,0,0,510.9,211.119Zm14.983,8.651c-1.208-.7-2.189-.14-2.189,1.248a4.826,4.826,0,0,0,2.189,3.775c1.209.7,2.19.139,2.19-1.248A4.822,4.822,0,0,0,525.886,219.77Z" transform="translate(0 7.42)" fill="url(#linear-gradient)"/>
      <path id="Path_899" data-name="Path 899" d="M536.519,165.12a4.823,4.823,0,0,0-2.189,3.775c0,1.387.98,1.947,2.189,1.248a4.821,4.821,0,0,0,2.189-3.777C538.708,164.98,537.729,164.422,536.519,165.12Zm29.967-17.3a4.824,4.824,0,0,0-2.189,3.775c0,1.387.98,1.947,2.189,1.248a4.822,4.822,0,0,0,2.19-3.775C568.676,147.68,567.7,147.12,566.486,147.819ZM551.5,156.47a4.822,4.822,0,0,0-2.19,3.775c0,1.387.981,1.947,2.19,1.248a4.824,4.824,0,0,0,2.189-3.777C553.692,156.329,552.711,155.771,551.5,156.47Zm-7.493,4.325a4.826,4.826,0,0,0-2.189,3.775c0,1.388.981,1.947,2.189,1.249a4.826,4.826,0,0,0,2.19-3.777C546.2,160.655,545.22,160.1,544.011,160.794Zm14.984-8.651a4.823,4.823,0,0,0-2.189,3.777c0,1.387.979,1.946,2.189,1.248a4.825,4.825,0,0,0,2.189-3.777C561.183,152,560.2,151.446,558.995,152.144Zm-29.967,17.3a4.82,4.82,0,0,0-2.189,3.775c0,1.388.979,1.947,2.189,1.248a4.824,4.824,0,0,0,2.189-3.775C531.216,169.306,530.236,168.748,529.028,169.445Zm44.95-20.928a4.826,4.826,0,0,0,2.19-3.777c0-1.387-.98-1.946-2.19-1.248a4.828,4.828,0,0,0-2.189,3.777C571.789,148.657,572.769,149.215,573.977,148.518Zm0,4a4.824,4.824,0,0,0-2.189,3.775c0,1.387.981,1.947,2.189,1.248a4.822,4.822,0,0,0,2.19-3.775C576.167,152.375,575.187,151.816,573.977,152.514Zm-14.983,8.651a4.82,4.82,0,0,0-2.189,3.775c0,1.387.979,1.947,2.189,1.248a4.82,4.82,0,0,0,2.189-3.775C561.183,161.026,560.2,160.466,558.995,161.165Zm-14.984,8.651a4.824,4.824,0,0,0-2.189,3.775c0,1.387.981,1.947,2.189,1.248a4.822,4.822,0,0,0,2.19-3.775C546.2,169.677,545.22,169.117,544.011,169.816Zm-14.983,8.651a4.82,4.82,0,0,0-2.189,3.775c0,1.387.979,1.947,2.189,1.248a4.824,4.824,0,0,0,2.189-3.775C531.216,178.327,530.236,177.768,529.028,178.466Zm37.458-21.627a4.828,4.828,0,0,0-2.189,3.777c0,1.387.98,1.946,2.189,1.248a4.826,4.826,0,0,0,2.19-3.777C568.676,156.7,567.7,156.142,566.486,156.839Zm-29.967,17.3a4.828,4.828,0,0,0-2.189,3.777c0,1.387.98,1.946,2.189,1.248a4.824,4.824,0,0,0,2.189-3.777C538.708,174,537.729,173.443,536.519,174.14ZM551.5,165.49a4.824,4.824,0,0,0-2.19,3.777c0,1.387.981,1.946,2.19,1.248a4.828,4.828,0,0,0,2.189-3.777C553.692,165.351,552.711,164.792,551.5,165.49Zm0,9.021a4.822,4.822,0,0,0-2.19,3.775c0,1.388.981,1.947,2.19,1.248a4.824,4.824,0,0,0,2.189-3.775C553.692,174.372,552.711,173.814,551.5,174.511Zm-14.984,8.651a4.823,4.823,0,0,0-2.189,3.775c0,1.388.98,1.947,2.189,1.248a4.82,4.82,0,0,0,2.189-3.775C538.708,183.023,537.729,182.463,536.519,183.162Zm-7.491,4.325a4.825,4.825,0,0,0-2.189,3.777c0,1.387.979,1.946,2.189,1.248a4.826,4.826,0,0,0,2.189-3.777C531.216,187.348,530.236,186.789,529.028,187.486Zm14.983-8.651a4.828,4.828,0,0,0-2.189,3.777c0,1.387.981,1.946,2.189,1.248a4.823,4.823,0,0,0,2.19-3.775C546.2,178.7,545.22,178.138,544.011,178.836Zm14.984-8.649a4.82,4.82,0,0,0-2.189,3.775c0,1.387.979,1.947,2.189,1.248a4.82,4.82,0,0,0,2.189-3.775C561.183,170.046,560.2,169.488,558.995,170.186Zm7.491-4.326a4.823,4.823,0,0,0-2.189,3.775c0,1.388.98,1.947,2.189,1.248a4.822,4.822,0,0,0,2.19-3.775C568.676,165.721,567.7,165.163,566.486,165.86Zm7.491-4.325a4.824,4.824,0,0,0-2.189,3.775c0,1.387.981,1.947,2.189,1.248a4.822,4.822,0,0,0,2.19-3.775C576.167,161.4,575.187,160.837,573.977,161.536Zm-7.491,13.346a4.824,4.824,0,0,0-2.189,3.775c0,1.387.98,1.947,2.189,1.248a4.822,4.822,0,0,0,2.19-3.775C568.676,174.743,567.7,174.183,566.486,174.882Zm-29.967,17.3a4.823,4.823,0,0,0-2.189,3.775c0,1.387.98,1.947,2.189,1.248a4.82,4.82,0,0,0,2.189-3.775C538.708,192.043,537.729,191.484,536.519,192.183Zm37.458-21.628a4.828,4.828,0,0,0-2.189,3.777c0,1.387.981,1.946,2.189,1.248a4.826,4.826,0,0,0,2.19-3.777C576.167,170.417,575.187,169.858,573.977,170.556Zm-44.95,25.952a4.822,4.822,0,0,0-2.189,3.777c0,1.387.979,1.946,2.189,1.248a4.828,4.828,0,0,0,2.189-3.777C531.216,196.369,530.236,195.809,529.028,196.508Zm14.983-8.651a4.828,4.828,0,0,0-2.189,3.777c0,1.387.981,1.946,2.189,1.248a4.826,4.826,0,0,0,2.19-3.777C546.2,187.718,545.22,187.16,544.011,187.857Zm7.493-4.325a4.822,4.822,0,0,0-2.19,3.775c0,1.387.981,1.947,2.19,1.248a4.824,4.824,0,0,0,2.189-3.775C553.692,183.392,552.711,182.834,551.5,183.532Zm7.491-4.326a4.823,4.823,0,0,0-2.189,3.777c0,1.387.979,1.946,2.189,1.248a4.825,4.825,0,0,0,2.189-3.777C561.183,179.067,560.2,178.509,558.995,179.206Zm0,9.021A4.82,4.82,0,0,0,556.806,192c0,1.388.979,1.947,2.189,1.248a4.82,4.82,0,0,0,2.189-3.775C561.183,188.089,560.2,187.53,558.995,188.228Zm-7.491,4.325a4.826,4.826,0,0,0-2.19,3.777c0,1.387.981,1.946,2.19,1.248a4.826,4.826,0,0,0,2.189-3.777C553.692,192.413,552.711,191.855,551.5,192.552Zm22.474-12.975a4.824,4.824,0,0,0-2.189,3.775c0,1.388.981,1.947,2.189,1.248a4.822,4.822,0,0,0,2.19-3.775C576.167,179.438,575.187,178.878,573.977,179.577Zm-44.95,25.952a4.82,4.82,0,0,0-2.189,3.775c0,1.387.979,1.947,2.189,1.248a4.824,4.824,0,0,0,2.189-3.775C531.216,205.39,530.236,204.83,529.028,205.529Zm7.491-4.326a4.828,4.828,0,0,0-2.189,3.777c0,1.387.98,1.946,2.189,1.248a4.825,4.825,0,0,0,2.189-3.777C538.708,201.064,537.729,200.506,536.519,201.2Zm29.967-17.3a4.828,4.828,0,0,0-2.189,3.777c0,1.387.98,1.946,2.189,1.248a4.822,4.822,0,0,0,2.19-3.777C568.676,183.763,567.7,183.2,566.486,183.9Zm-22.475,12.977a4.824,4.824,0,0,0-2.189,3.775c0,1.388.981,1.947,2.189,1.248a4.821,4.821,0,0,0,2.19-3.775C546.2,196.739,545.22,196.18,544.011,196.878Zm29.967-8.28a4.824,4.824,0,0,0-2.189,3.775c0,1.387.981,1.947,2.189,1.248a4.822,4.822,0,0,0,2.19-3.775C576.167,188.458,575.187,187.9,573.977,188.6Zm-37.458,21.626A4.823,4.823,0,0,0,534.33,214c0,1.388.98,1.947,2.189,1.248a4.82,4.82,0,0,0,2.189-3.775C538.708,210.085,537.729,209.526,536.519,210.224Zm-7.491,4.326a4.82,4.82,0,0,0-2.189,3.775c0,1.387.979,1.946,2.189,1.248a4.824,4.824,0,0,0,2.189-3.777C531.216,214.41,530.236,213.852,529.028,214.55Zm14.983-8.651a4.824,4.824,0,0,0-2.189,3.775c0,1.387.981,1.947,2.189,1.248a4.822,4.822,0,0,0,2.19-3.775C546.2,205.759,545.22,205.2,544.011,205.9Zm14.984-8.651a4.82,4.82,0,0,0-2.189,3.775c0,1.387.979,1.947,2.189,1.248a4.82,4.82,0,0,0,2.189-3.775C561.183,197.109,560.2,196.55,558.995,197.249Zm7.491-4.326A4.826,4.826,0,0,0,564.3,196.7c0,1.387.98,1.946,2.189,1.248a4.826,4.826,0,0,0,2.19-3.777C568.676,192.784,567.7,192.226,566.486,192.923ZM551.5,201.574a4.822,4.822,0,0,0-2.19,3.777c0,1.387.981,1.946,2.19,1.248a4.828,4.828,0,0,0,2.189-3.777C553.692,201.435,552.711,200.876,551.5,201.574Zm14.983.371a4.823,4.823,0,0,0-2.189,3.775c0,1.388.98,1.947,2.189,1.248a4.822,4.822,0,0,0,2.19-3.775C568.676,201.805,567.7,201.246,566.486,201.944Zm-7.491,4.325a4.825,4.825,0,0,0-2.189,3.777c0,1.387.979,1.946,2.189,1.248a4.823,4.823,0,0,0,2.189-3.777C561.183,206.13,560.2,205.572,558.995,206.269Zm-29.967,17.3a4.822,4.822,0,0,0-2.189,3.777c0,1.387.979,1.946,2.189,1.248a4.828,4.828,0,0,0,2.189-3.777C531.216,223.432,530.236,222.873,529.028,223.571Zm14.983-8.651a4.828,4.828,0,0,0-2.189,3.777c0,1.387.981,1.946,2.189,1.248a4.826,4.826,0,0,0,2.19-3.777C546.2,214.781,545.22,214.222,544.011,214.92Zm-7.491,4.326a4.824,4.824,0,0,0-2.189,3.775c0,1.387.98,1.947,2.189,1.248a4.82,4.82,0,0,0,2.189-3.775C538.708,219.107,537.729,218.547,536.519,219.246ZM551.5,210.6a4.822,4.822,0,0,0-2.19,3.775c0,1.387.981,1.947,2.19,1.248a4.824,4.824,0,0,0,2.189-3.775C553.692,210.456,552.711,209.9,551.5,210.6Zm22.474-12.977a4.828,4.828,0,0,0-2.189,3.777c0,1.387.981,1.946,2.189,1.248a4.826,4.826,0,0,0,2.19-3.777C576.167,197.479,575.187,196.921,573.977,197.618Z" transform="translate(11.642 7.27)" fill="url(#linear-gradient)"/>
      <path id="Path_900" data-name="Path 900" d="M562.893,131.341a4.826,4.826,0,0,0-4.365-.008,1.33,1.33,0,0,0,.013,2.519,4.822,4.822,0,0,0,4.365.009A1.331,1.331,0,0,0,562.893,131.341Zm-14.984-8.651a4.826,4.826,0,0,0-4.365-.008,1.33,1.33,0,0,0,.014,2.519,4.822,4.822,0,0,0,4.365.009C549.125,124.516,549.119,123.389,547.909,122.69Zm-11.842-1.813a4.822,4.822,0,0,0,4.365.008,1.33,1.33,0,0,0-.014-2.519,4.822,4.822,0,0,0-4.365-.008C534.852,119.051,534.858,120.179,536.068,120.877Zm34.317,14.79a4.818,4.818,0,0,0-4.365-.008c-1.2.694-1.2,1.821.013,2.519a4.829,4.829,0,0,0,4.366.008A1.33,1.33,0,0,0,570.385,135.667Zm7.491,4.325a4.822,4.822,0,0,0-4.365-.008c-1.2.694-1.2,1.822.014,2.519a4.822,4.822,0,0,0,4.365.009A1.331,1.331,0,0,0,577.876,139.991Zm7.491,4.326a4.819,4.819,0,0,0-4.363-.009,1.331,1.331,0,0,0,.013,2.521,4.826,4.826,0,0,0,4.365.008C586.584,146.143,586.577,145.015,585.368,144.317Zm-29.966-17.3a4.821,4.821,0,0,0-4.366-.008c-1.2.694-1.194,1.821.014,2.519a4.826,4.826,0,0,0,4.365.008A1.33,1.33,0,0,0,555.4,127.016Zm-7.813,4.51a4.826,4.826,0,0,0-4.365-.008c-1.2.694-1.2,1.822.014,2.519a4.818,4.818,0,0,0,4.365.008C548.8,133.352,548.8,132.225,547.589,131.526Zm7.491,4.325a4.826,4.826,0,0,0-4.365-.008,1.331,1.331,0,0,0,.014,2.521,4.826,4.826,0,0,0,4.365.008C556.3,137.678,556.29,136.549,555.08,135.851Zm22.475,12.977a4.826,4.826,0,0,0-4.365-.008,1.33,1.33,0,0,0,.013,2.519,4.824,4.824,0,0,0,4.366.008A1.33,1.33,0,0,0,577.556,148.827Zm-7.491-4.326a4.826,4.826,0,0,0-4.365-.008c-1.2.694-1.2,1.822.013,2.521a4.826,4.826,0,0,0,4.365.008A1.331,1.331,0,0,0,570.065,144.5Zm-41.81-19.115a4.822,4.822,0,0,0,4.365.009c1.2-.695,1.2-1.822-.014-2.521a4.824,4.824,0,0,0-4.363-.008A1.33,1.33,0,0,0,528.254,125.387ZM540.1,127.2a4.818,4.818,0,0,0-4.365-.008c-1.2.694-1.2,1.821.013,2.519a4.826,4.826,0,0,0,4.365.008A1.33,1.33,0,0,0,540.1,127.2Zm22.475,12.975a4.829,4.829,0,0,0-4.366-.008,1.33,1.33,0,0,0,.014,2.519,4.822,4.822,0,0,0,4.365.008C563.788,142,563.781,140.875,562.573,140.177Zm-30.288-8.465a4.826,4.826,0,0,0-4.365-.008,1.33,1.33,0,0,0,.014,2.519,4.822,4.822,0,0,0,4.365.008C533.5,133.537,533.494,132.409,532.285,131.711Zm7.491,4.325a4.823,4.823,0,0,0-4.363-.008,1.331,1.331,0,0,0,.013,2.521,4.826,4.826,0,0,0,4.365.008C540.992,137.863,540.986,136.735,539.776,136.036Zm-14.983-8.651a4.826,4.826,0,0,0-4.365-.008c-1.2.694-1.2,1.822.014,2.521a4.826,4.826,0,0,0,4.365.008A1.331,1.331,0,0,0,524.793,127.385Zm44.951,25.952a4.829,4.829,0,0,0-4.366-.008c-1.2.694-1.194,1.822.014,2.521a4.826,4.826,0,0,0,4.365.008A1.331,1.331,0,0,0,569.744,153.337Zm-22.475-12.975a4.822,4.822,0,0,0-4.365-.008c-1.2.694-1.2,1.821.013,2.519a4.826,4.826,0,0,0,4.365.008A1.33,1.33,0,0,0,547.269,140.362Zm14.983,8.651a4.822,4.822,0,0,0-4.365-.008,1.33,1.33,0,0,0,.014,2.519,4.826,4.826,0,0,0,4.365.008C563.467,150.839,563.461,149.71,562.251,149.013Zm-7.491-4.326a4.826,4.826,0,0,0-4.365-.008c-1.2.694-1.2,1.822.014,2.521a4.826,4.826,0,0,0,4.365.008A1.331,1.331,0,0,0,554.76,144.687ZM516.981,131.9a4.822,4.822,0,0,0-4.365-.008c-1.2.694-1.2,1.821.013,2.519a4.826,4.826,0,0,0,4.365.008A1.33,1.33,0,0,0,516.981,131.9Zm7.491,4.325a4.826,4.826,0,0,0-4.365-.008c-1.2.694-1.2,1.822.014,2.521a4.823,4.823,0,0,0,4.363.008A1.331,1.331,0,0,0,524.473,136.221Zm29.967,17.3a4.826,4.826,0,0,0-4.365-.008,1.33,1.33,0,0,0,.013,2.519,4.818,4.818,0,0,0,4.365.008C555.654,155.349,555.648,154.221,554.44,153.523Zm-22.476-12.975a4.822,4.822,0,0,0-4.365-.009,1.331,1.331,0,0,0,.014,2.521,4.826,4.826,0,0,0,4.365.008C533.18,142.373,533.174,141.245,531.964,140.547Zm29.967,17.3a4.822,4.822,0,0,0-4.365-.009c-1.2.695-1.2,1.822.014,2.521a4.826,4.826,0,0,0,4.365.008C563.147,159.675,563.141,158.546,561.931,157.849Zm-22.475-12.977a4.826,4.826,0,0,0-4.365-.008,1.33,1.33,0,0,0,.014,2.519,4.818,4.818,0,0,0,4.365.008C540.672,146.7,540.665,145.571,539.456,144.872Zm7.493,4.326a4.822,4.822,0,0,0-4.365-.009,1.331,1.331,0,0,0,.013,2.521,4.826,4.826,0,0,0,4.365.008A1.33,1.33,0,0,0,546.948,149.2Zm-22.8-4.141a4.822,4.822,0,0,0-4.365-.008,1.33,1.33,0,0,0,.013,2.519,4.818,4.818,0,0,0,4.365.008A1.33,1.33,0,0,0,524.152,145.057Zm-14.984-8.651a4.826,4.826,0,0,0-4.365-.008c-1.2.694-1.2,1.822.014,2.519a4.818,4.818,0,0,0,4.365.008C510.383,138.232,510.378,137.105,509.168,136.407Zm7.491,4.326a4.819,4.819,0,0,0-4.363-.009,1.331,1.331,0,0,0,.013,2.521,4.826,4.826,0,0,0,4.365.008C517.876,142.558,517.869,141.43,516.66,140.733Zm22.475,12.975a4.826,4.826,0,0,0-4.365-.008,1.33,1.33,0,0,0,.014,2.519,4.822,4.822,0,0,0,4.365.008C540.351,155.534,540.345,154.405,539.135,153.708Zm7.491,4.326a4.822,4.822,0,0,0-4.365-.009,1.331,1.331,0,0,0,.014,2.521,4.826,4.826,0,0,0,4.365.008C547.843,159.86,547.836,158.731,546.627,158.034Zm-14.983-8.651a4.822,4.822,0,0,0-4.365-.009c-1.2.695-1.2,1.822.014,2.521a4.823,4.823,0,0,0,4.363.008A1.33,1.33,0,0,0,531.644,149.383Zm22.475,12.975a4.822,4.822,0,0,0-4.365-.008,1.33,1.33,0,0,0,.013,2.519,4.822,4.822,0,0,0,4.365.008A1.33,1.33,0,0,0,554.119,162.359Zm-37.78-12.791a4.826,4.826,0,0,0-4.365-.008c-1.2.694-1.2,1.822.014,2.521a4.826,4.826,0,0,0,4.365.008A1.331,1.331,0,0,0,516.339,149.567Zm-14.983-8.649a4.822,4.822,0,0,0-4.365-.009c-1.2.694-1.2,1.822.013,2.521a4.826,4.826,0,0,0,4.365.008A1.33,1.33,0,0,0,501.357,140.918Zm7.491,4.325a4.822,4.822,0,0,0-4.365-.008c-1.2.694-1.2,1.822.014,2.519a4.822,4.822,0,0,0,4.365.008A1.33,1.33,0,0,0,508.848,145.243Zm37.458,21.626a4.826,4.826,0,0,0-4.365-.008,1.331,1.331,0,0,0,.014,2.521,4.826,4.826,0,0,0,4.365.008C547.522,168.7,547.516,167.567,546.306,166.869Zm-22.475-12.975a4.819,4.819,0,0,0-4.363-.008,1.33,1.33,0,0,0,.013,2.519,4.822,4.822,0,0,0,4.365.008C525.047,155.719,525.04,154.591,523.831,153.893Zm14.984,8.651a4.822,4.822,0,0,0-4.365-.008c-1.2.694-1.2,1.822.014,2.519a4.822,4.822,0,0,0,4.365.008A1.33,1.33,0,0,0,538.815,162.544Zm-7.491-4.326a4.826,4.826,0,0,0-4.365-.008,1.331,1.331,0,0,0,.013,2.521,4.826,4.826,0,0,0,4.365.008A1.331,1.331,0,0,0,531.323,158.218Zm-30.287-8.465a4.829,4.829,0,0,0-4.366-.008c-1.2.694-1.194,1.822.014,2.521a4.826,4.826,0,0,0,4.365.008A1.331,1.331,0,0,0,501.036,149.753Zm-7.493-4.325a4.822,4.822,0,0,0-4.365-.008,1.33,1.33,0,0,0,.014,2.519,4.822,4.822,0,0,0,4.365.008C494.759,147.254,494.753,146.125,493.543,145.428Zm44.951,25.952a4.818,4.818,0,0,0-4.365-.008,1.33,1.33,0,0,0,.013,2.519,4.826,4.826,0,0,0,4.365.008A1.33,1.33,0,0,0,538.494,171.38Zm-14.984-8.651a4.822,4.822,0,0,0-4.365-.008,1.33,1.33,0,0,0,.014,2.519,4.826,4.826,0,0,0,4.365.008C524.726,164.555,524.72,163.427,523.51,162.729ZM531,167.054a4.826,4.826,0,0,0-4.365-.008,1.33,1.33,0,0,0,.013,2.519,4.826,4.826,0,0,0,4.365.009A1.331,1.331,0,0,0,531,167.054Zm-22.475-12.975a4.822,4.822,0,0,0-4.365-.008c-1.2.694-1.2,1.821.013,2.519a4.826,4.826,0,0,0,4.365.008A1.33,1.33,0,0,0,508.527,154.079Zm7.491,4.325a4.826,4.826,0,0,0-4.365-.008c-1.2.694-1.2,1.822.014,2.519a4.822,4.822,0,0,0,4.365.009A1.331,1.331,0,0,0,516.019,158.4Z" transform="translate(0.586 0)" fill="url(#linear-gradient)"/>
    </g>
  </g>
</svg>
